<?xml version="1.0" encoding="UTF-8"?>
<svg id="Layer_1" data-name="Layer 1" xmlns="http://www.w3.org/2000/svg" width="52.92mm" height="52.92mm" viewBox="0 0 150 150">
  <defs>
    <style>
      .cls-1 {
        fill: none;
        stroke: #fff;
        stroke-miterlimit: 10;
        stroke-width: 3px;
      }

      .cls-2 {
        fill: #353535;
      }

      .cls-3 {
        fill: #1d421d;
      }
    </style>
  </defs>
  <path class="cls-2" d="M75,3c39.7,0,72,32.3,72,72s-32.3,72-72,72S3,114.7,3,75,35.3,3,75,3M75,0C33.58,0,0,33.58,0,75s33.58,75,75,75,75-33.58,75-75S116.42,0,75,0h0Z"/>
  <path class="cls-3" d="M91.78,53.19V29.7c0-2.78-2.25-5.03-5.03-5.03h-23.49c-2.78,0-5.03,2.25-5.03,5.03v23.49c0,2.78-2.25,5.03-5.03,5.03H29.7c-2.78,0-5.03,2.25-5.03,5.03v23.49c0,2.78,2.25,5.03,5.03,5.03h23.49c2.78,0,5.03,2.25,5.03,5.03v23.49c0,2.78,2.25,5.03,5.03,5.03h23.49c2.78,0,5.03-2.25,5.03-5.03v-23.49c0-2.78,2.25-5.03,5.03-5.03h23.49c2.78,0,5.03-2.25,5.03-5.03v-23.49c0-2.78-2.25-5.03-5.03-5.03h-23.49c-2.78,0-5.03-2.25-5.03-5.03Z"/>
  <path class="cls-2" d="M82.95,19.41V52.96h33.55v31.55h-33.55v33.55h-31.55v-33.55H17.85v-31.55H51.4V19.41h31.55m1-1H50.4V51.96H16.85v33.55H50.4v33.55h33.55v-33.55h33.55V51.96h-33.55V18.41h0Z"/>
  <polyline class="cls-1" points="75 51.96 75 75 129.01 75"/>
</svg>