<?xml version="1.0" encoding="UTF-8"?>
<svg id="Layer_1" data-name="Layer 1" xmlns="http://www.w3.org/2000/svg" width="52.92mm" height="52.92mm" viewBox="0 0 150 150">
  <defs>
    <style>
      .cls-1 {
        fill: #9abf9c;
      }

      .cls-2 {
        fill: #fff;
      }

      .cls-3 {
        fill: #353535;
      }
    </style>
  </defs>
  <path class="cls-2" d="M75,1.5C34.47,1.5,1.5,34.48,1.5,75s32.97,73.51,73.5,73.51,73.5-32.98,73.5-73.51S115.53,1.5,75,1.5Zm2.44,50.25v28.61h60.49v12.02c0,3.25-2.63,5.88-5.88,5.88h-27.43c-3.25,0-5.88,2.63-5.88,5.88v27.43c0,3.25-2.63,5.88-5.88,5.88h-27.44c-3.24,0-5.87-2.63-5.87-5.88v-27.43c0-3.25-2.64-5.88-5.88-5.88H26.23c-3.25,0-5.88-2.63-5.88-5.88v-27.44c0-3.24,2.63-5.88,5.88-5.88h27.44c3.24,0,5.88-2.63,5.88-5.87V25.75c0-3.25,2.63-5.88,5.87-5.88h27.44c3.25,0,5.88,2.63,5.88,5.88v27.44c0,3.24,2.63,5.87,5.88,5.87h27.43c3.25,0,5.88,2.64,5.88,5.88v12.02h-56.95v-25.21h-3.54Z"/>
  <path class="cls-3" d="M75,3c39.7,0,72,32.3,72,72s-32.3,72-72,72S3,114.7,3,75,35.3,3,75,3M75,0C33.58,0,0,33.58,0,75s33.58,75,75,75,75-33.58,75-75S116.42,0,75,0h0Z"/>
  <path class="cls-1" d="M98.74,53.18V25.75c0-3.25-2.63-5.88-5.88-5.88h-27.44c-3.25,0-5.88,2.63-5.88,5.88v27.44c0,3.25-2.63,5.88-5.88,5.88H26.23c-3.25,0-5.88,2.63-5.88,5.88v27.44c0,3.25,2.63,5.88,5.88,5.88h27.44c3.25,0,5.88,2.63,5.88,5.88v27.44c0,3.25,2.63,5.88,5.88,5.88h27.44c3.25,0,5.88-2.63,5.88-5.88v-27.44c0-3.25,2.63-5.88,5.88-5.88h27.44c3.25,0,5.88-2.63,5.88-5.88v-27.44c0-3.25-2.63-5.88-5.88-5.88h-27.44c-3.25,0-5.88-2.63-5.88-5.88Z"/>
  <path class="cls-3" d="M88.43,13.72V52.91h39.19v36.86h-39.19v39.19H51.57v-39.19H12.38V52.91H51.57V13.72h36.86m1.17-1.17H50.41V51.75H11.21v39.19H50.41v39.19h39.19v-39.19h39.19V51.75h-39.19V12.55h0Z"/>
  <polygon class="cls-2" points="141.28 80.36 77.44 80.36 77.44 51.75 80.99 51.75 80.99 76.95 141.28 76.95 141.28 80.36"/>
</svg>